
<svg width="961px" height="128px" viewBox="0 0 961 128" version="1.1" xmlns="http://www.w3.org/2000/svg" xmlns:xlink="http://www.w3.org/1999/xlink">
    <!-- Generator: Sketch 43.2 (39069) - http://www.bohemiancoding.com/sketch -->
    <desc>Created with Sketch.</desc>
    <defs>
        <rect id="path-1" x="929" y="65" width="15" height="7" rx="3.5"></rect>
    </defs>
    <g id="Page-1" stroke="none" stroke-width="1" fill="none" fill-rule="evenodd">
        <g id="Artboard">
            <ellipse id="Oval" stroke="#979797" fill-opacity="0.813320879" fill="#C2AA47" cx="23" cy="62" rx="20" ry="21"></ellipse>
            <circle id="Oval-2" stroke="#979797" fill="#D91357" opacity="0.375849185" cx="23" cy="61" r="4"></circle>
            <ellipse id="Oval-Copy" stroke="#979797" fill-opacity="0.813320879" fill="#C2AA47" cx="69" cy="62" rx="20" ry="21"></ellipse>
            <path d="M69,65 C71.209139,65 73,63.209139 73,61 C73,58.790861 71.209139,53.4199219 69,53.4199219 C66.790861,53.4199219 65,58.790861 65,61 C65,63.209139 66.790861,65 69,65 Z" id="Oval-2-Copy" stroke="#979797" fill="#D91357" opacity="0.476279438"></path>
            <ellipse id="Oval-Copy-2" stroke="#979797" fill-opacity="0.813320879" fill="#C2AA47" cx="115" cy="62" rx="20" ry="21"></ellipse>
            <path d="M115,64.5800781 C117.209139,64.5800781 119,62.7892171 119,60.5800781 C119,58.3709391 117.209139,71.5351562 115,71.5351562 C112.790861,71.5351562 111,58.3709391 111,60.5800781 C111,62.7892171 112.790861,64.5800781 115,64.5800781 Z" id="Oval-2-Copy-2" stroke="#979797" fill="#D91357" opacity="0.476279438"></path>
            <ellipse id="Oval-Copy-3" stroke="#979797" fill-opacity="0.813320879" fill="#C2AA47" cx="206" cy="62" rx="20" ry="21"></ellipse>
            <path d="M115,64.5800781 C117.209139,64.5800781 119,62.7892171 119,60.5800781 C119,58.3709391 117.209139,71.5351562 115,71.5351562 C112.790861,71.5351562 111,58.3709391 111,60.5800781 C111,62.7892171 112.790861,64.5800781 115,64.5800781 Z" id="Oval-2-Copy-3" stroke="#979797" fill="#D91357" opacity="0.476279438"></path>
            <ellipse id="Oval-Copy-5" stroke="#979797" fill-opacity="0.813320879" fill="#C2AA47" cx="160" cy="62" rx="20" ry="21"></ellipse>
            <path d="M160,65.2499003 C162.209139,65.2499003 164,63.4590393 164,61.2499003 C164,59.0407613 162.209139,72.2049784 160,72.2049784 C157.790861,72.2049784 156,59.0407613 156,61.2499003 C156,63.4590393 157.790861,65.2499003 160,65.2499003 Z" id="Oval-2-Copy-5" stroke="#979797" fill="#D91357" opacity="0.476279438"></path>
            <ellipse id="Oval-Copy-4" stroke="#979797" fill-opacity="0.813320879" fill="#C2AA47" cx="160" cy="62" rx="20" ry="21"></ellipse>
            <path d="M160,65.2499003 C162.209139,65.2499003 164,63.4590393 164,61.2499003 C164,59.0407613 162.209139,72.2049784 160,72.2049784 C157.790861,72.2049784 156,59.0407613 156,61.2499003 C156,63.4590393 157.790861,65.2499003 160,65.2499003 Z" id="Oval-2-Copy-4" stroke="#979797" fill="#D91357" opacity="0.476279438"></path>
            <path d="M204,65.2499003 C206.209139,65.2499003 208,63.4590393 208,61.2499003 C208,59.0407613 222.209139,61.2499003 220,61.2499003 C217.790861,61.2499003 200,59.0407613 200,61.2499003 C200,63.4590393 201.790861,65.2499003 204,65.2499003 Z" id="Oval-2-Copy-6" stroke="#979797" fill="#D91357" opacity="0.476279438"></path>
            <ellipse id="Oval-Copy-6" stroke="#979797" fill-opacity="0.813320879" fill="#C2AA47" cx="206" cy="62" rx="20" ry="21"></ellipse>
            <path d="M204,64.9818396 C206.209139,64.9818396 208,63.1909786 208,60.9818396 C208,58.7727006 222.209139,60.9818396 220,60.9818396 C217.790861,60.9818396 200,58.7727006 200,60.9818396 C200,63.1909786 201.790861,64.9818396 204,64.9818396 Z" id="Oval-2-Copy-7" stroke="#979797" fill="#D91357" opacity="0.476279438"></path>
            <ellipse id="Oval-Copy-8" stroke="#979797" fill-opacity="0.813320879" fill="#C2AA47" cx="252" cy="62" rx="20" ry="21"></ellipse>
            <ellipse id="Oval-Copy-7" stroke="#979797" fill-opacity="0.813320879" fill="#C2AA47" cx="297" cy="62" rx="20" ry="21"></ellipse>
            <path d="M252,69.5800781 C254.209139,69.5800781 256,65.4172965 256,60.2822451 C256,55.1471937 270.209139,60.2822451 268,60.2822451 C265.790861,60.2822451 248,55.1471937 248,60.2822451 C248,65.4172965 249.790861,69.5800781 252,69.5800781 Z" id="Oval-2-Copy-8" stroke="#979797" fill="#D91357" opacity="0.476279438"></path>
            <path d="M297,65 C299.209139,65 301,63.4329966 301,61.5 C301,59.5670034 299.292818,57.9247437 297.083679,57.9247437 C294.87454,57.9247437 293,59.5670034 293,61.5 C293,63.4329966 294.790861,65 297,65 Z" id="Oval-3" stroke="#979797" fill="#D91357" opacity="0.45923913"></path>
            <ellipse id="Oval-Copy-9" stroke="#979797" fill-opacity="0.813320879" fill="#C2AA47" cx="343" cy="61" rx="20" ry="21"></ellipse>
            <path d="M343,65.0752563 C345.209139,65.0752563 347,63.3034439 347,61.1178026 C347,58.9321612 345.209139,61.1178026 343,61.1178026 C340.790861,61.1178026 339,58.9321612 339,61.1178026 C339,63.3034439 340.790861,65.0752563 343,65.0752563 Z" id="Oval-3-Copy" stroke="#979797" fill="#D91357" opacity="0.45923913"></path>
            <ellipse id="Oval-Copy-10" stroke="#979797" fill-opacity="0.813320879" fill="#C2AA47" cx="389" cy="61" rx="20" ry="21"></ellipse>
            <path d="M389,64.9288499 C391.209139,64.9288499 393,63.1570375 393,60.9713962 C393,58.7857548 391.209139,62.8581332 389,62.8581332 C386.790861,62.8581332 385,58.7857548 385,60.9713962 C385,63.1570375 386.790861,64.9288499 389,64.9288499 Z" id="Oval-3-Copy-2" stroke="#979797" fill="#D91357" opacity="0.45923913"></path>
            <ellipse id="Oval-Copy-11" stroke="#979797" fill-opacity="0.813320879" fill="#C2AA47" cx="434" cy="61" rx="20" ry="21"></ellipse>
            <path d="M434,62.8121329 C436.209139,62.8121329 438,62.4994659 438,62.1137717 C438,61.7280774 436.209139,62.4467191 434,62.4467191 C431.790861,62.4467191 430,61.7280774 430,62.1137717 C430,62.4994659 431.790861,62.8121329 434,62.8121329 Z" id="Oval-3-Copy-3" stroke="#979797" fill="#D91357" opacity="0.45923913" transform="translate(434.000000, 62.500000) scale(1, -1) translate(-434.000000, -62.500000) "></path>
            <ellipse id="Oval-Copy-12" stroke="#979797" fill-opacity="0.813320879" fill="#C2AA47" cx="434" cy="61" rx="20" ry="21"></ellipse>
            <path d="M434,62.8121329 C436.209139,62.8121329 438,62.4994659 438,62.1137717 C438,61.7280774 436.209139,62.4467191 434,62.4467191 C431.790861,62.4467191 430,61.7280774 430,62.1137717 C430,62.4994659 431.790861,62.8121329 434,62.8121329 Z" id="Oval-3-Copy-4" stroke="#979797" fill="#D91357" opacity="0.45923913" transform="translate(434.000000, 62.500000) scale(1, -1) translate(-434.000000, -62.500000) "></path>
            <ellipse id="Oval-Copy-14" stroke="#979797" fill-opacity="0.813320879" fill="#C2AA47" cx="525" cy="61" rx="20" ry="21"></ellipse>
            <ellipse id="Oval-Copy-13" stroke="#979797" fill-opacity="0.813320879" fill="#C2AA47" cx="525" cy="61" rx="20" ry="21"></ellipse>
            <ellipse id="Oval-Copy-16" stroke="#979797" fill-opacity="0.813320879" fill="#C2AA47" cx="480" cy="61" rx="20" ry="21"></ellipse>
            <path d="M525,62.8121329 C527.209139,62.8121329 529,62.4994659 529,62.1137717 C529,61.7280774 527.209139,62.4467191 525,62.4467191 C522.790861,62.4467191 521,61.7280774 521,62.1137717 C521,62.4994659 522.790861,62.8121329 525,62.8121329 Z" id="Oval-3-Copy-8" stroke="#979797" fill="#D91357" opacity="0.45923913" transform="translate(525.000000, 62.500000) scale(1, -1) translate(-525.000000, -62.500000) "></path>
            <ellipse id="Oval-Copy-15" stroke="#979797" fill-opacity="0.813320879" fill="#C2AA47" cx="572" cy="61" rx="20" ry="21"></ellipse>
            <ellipse id="Oval-Copy-17" stroke="#979797" fill-opacity="0.813320879" fill="#C2AA47" cx="617" cy="61" rx="20" ry="21"></ellipse>
            <ellipse id="Oval-Copy-18" stroke="#979797" fill-opacity="0.813320879" fill="#C2AA47" cx="662" cy="61" rx="20" ry="21"></ellipse>
            <ellipse id="Oval-Copy-19" stroke="#979797" fill-opacity="0.813320879" fill="#C2AA47" cx="709" cy="61" rx="20" ry="21"></ellipse>
            <ellipse id="Oval-Copy-20" stroke="#979797" fill-opacity="0.813320879" fill="#C2AA47" cx="754" cy="61" rx="20" ry="21"></ellipse>
            <ellipse id="Oval-Copy-21" stroke="#979797" fill-opacity="0.813320879" fill="#C2AA47" cx="800" cy="61" rx="20" ry="21"></ellipse>
            <ellipse id="Oval-Copy-22" stroke="#979797" fill-opacity="0.813320879" fill="#C2AA47" cx="846" cy="61" rx="20" ry="21"></ellipse>
            <ellipse id="Oval-Copy-23" stroke="#979797" fill-opacity="0.813320879" fill="#C2AA47" cx="892" cy="61" rx="20" ry="21"></ellipse>
            <ellipse id="Oval-Copy-24" stroke="#979797" fill-opacity="0.813320879" fill="#C2AA47" cx="937" cy="61" rx="20" ry="21"></ellipse>
            <path d="M480,63.5324097 C482.209139,63.5324097 484,62.5428009 484,62.1571066 C484,61.7714124 482.209139,60 480,60 C477.790861,60 476,61.7714124 476,62.1571066 C476,62.5428009 477.790861,63.5324097 480,63.5324097 Z" id="Oval-3-Copy-7" stroke="#979797" fill="#D91357" opacity="0.45923913" transform="translate(480.000000, 61.766205) scale(1, -1) translate(-480.000000, -61.766205) "></path>
            <path d="M525,65 C527.209139,65 529,62.7587905 529,61.8852921 C529,61.0117938 527.209139,57 525,57 C522.790861,57 521,61.0117938 521,61.8852921 C521,62.7587905 522.790861,65 525,65 Z" id="Oval-3-Copy-9" stroke="#979797" fill="#D91357" opacity="0.45923913" transform="translate(525.000000, 61.000000) scale(1, -1) translate(-525.000000, -61.000000) "></path>
            <path d="M570,69.2952182 C572.209139,69.2952182 568.244584,66.1805103 574,66.1805103 C579.755416,66.1805103 576.945808,54 574.736669,54 C572.52753,54 566,65.307012 566,66.1805103 C566,67.0540086 567.790861,69.2952182 570,69.2952182 Z" id="Oval-3-Copy-10" stroke="#979797" fill="#D91357" opacity="0.45923913" transform="translate(571.701673, 61.647609) scale(1, -1) translate(-571.701673, -61.647609) "></path>
            <path d="M615,63.0166016 C617.209139,63.0166016 624.93721,69.8164063 630.692627,69.8164063 C636.448043,69.8164063 622.209139,48.2001953 620,48.2001953 C617.790861,48.2001953 611,59.0283953 611,59.9018937 C611,60.775392 612.790861,63.0166016 615,63.0166016 Z" id="Oval-3-Copy-11" stroke="#979797" fill="#D91357" opacity="0.45923913" transform="translate(621.526211, 59.008301) scale(1, -1) translate(-621.526211, -59.008301) "></path>
            <path d="M654.494935,80 C656.704074,80 670.33464,75.7982613 676.090056,75.7982613 C681.845473,75.7982613 671.375555,42.097814 669.166416,42.097814 C666.957277,42.097814 653.089792,63.209912 653.089792,64.0834103 C653.089792,64.9569086 652.285796,80 654.494935,80 Z" id="Oval-3-Copy-12" stroke="#979797" fill="#D91357" opacity="0.45923913" transform="translate(665.371634, 61.048907) scale(1, -1) translate(-665.371634, -61.048907) "></path>
            <path d="M701.547818,79.902186 C703.756957,79.902186 705.381749,70.2495323 711.137165,70.2495323 C714.176112,70.2495323 716.038645,62.3735673 716.794627,54.9388925 C717.470388,48.2931438 717.261979,42 716.219299,42 C714.01016,42 690.402897,57.0286877 690.402897,57.902186 C690.402897,58.7756843 699.338679,79.902186 701.547818,79.902186 Z" id="Oval-3-Copy-13" stroke="#979797" fill="#D91357" opacity="0.45923913" transform="translate(703.793856, 60.951093) scale(1, -1) translate(-703.793856, -60.951093) "></path>
            <path d="M751.144921,77.902186 C753.35406,77.902186 756.332394,63.025907 762.087811,63.025907 C765.126757,63.025907 762.186048,63.2481751 762.942029,55.8135003 C763.61779,49.1677517 766.859083,40 765.816402,40 C763.607263,40 753.740553,53.0286877 753.740553,53.902186 C753.740553,54.3000178 748.598229,54.5121546 748.858343,58.951093 C749.169349,64.2584986 749.941927,77.902186 751.144921,77.902186 Z" id="Oval-3-Copy-14" stroke="#979797" fill="#D91357" opacity="0.45923913" transform="translate(757.435069, 58.951093) scale(1, -1) translate(-757.435069, -58.951093) "></path>
            <path d="M795.892778,77.902186 C798.101917,77.902186 801.08025,63.025907 806.835667,63.025907 C809.874613,63.025907 806.933904,63.2481751 807.689886,55.8135003 C808.365647,49.1677517 811.606939,40 810.564258,40 C808.355119,40 800,53.0286877 800,53.902186 C800,54.3000178 793.346085,54.5121546 793.6062,58.951093 C793.917205,64.2584986 794.689783,77.902186 795.892778,77.902186 Z" id="Oval-3-Copy-15" stroke="#979797" fill="#8B572A" opacity="0.45923913" transform="translate(802.183982, 58.951093) scale(1, -1) translate(-802.183982, -58.951093) "></path>
            <path d="M843.943248,71.3484165 C846.152387,71.3484165 847.481483,66.878472 853.236899,66.878472 C856.275846,66.878472 853.335137,67.1007402 854.091118,59.6660654 C854.766879,53.0203167 853.540999,50.4063346 852.498319,50.4063346 C850.28918,50.4063346 846.401233,56.8812527 846.401233,57.7547511 C846.401233,58.1525829 839.747318,58.3647197 840.007432,62.8036581 C840.318438,68.1110637 842.740254,71.3484165 843.943248,71.3484165 Z" id="Oval-3-Copy-16" stroke="#979797" fill="#0F0801" opacity="0.45923913" transform="translate(847.322788, 60.877376) scale(1, -1) translate(-847.322788, -60.877376) "></path>
            <path d="M892.379501,64.2990462 C894.340421,64.2990462 890.640864,64.2990462 895.749602,64.2990462 C898.447092,64.2990462 894.055597,65.0996804 894.726636,58.3544665 C895.326469,52.3250171 894.781931,54.3544665 893.856406,54.3544665 C891.895486,54.3544665 891.332964,56.3014012 891.332964,57.093895 C891.332964,57.4548335 889.451102,55.0706011 889.68199,59.0978908 C889.958051,63.9131096 891.311675,64.2990462 892.379501,64.2990462 Z" id="Oval-3-Copy-17" stroke="#979797" fill="#0F0801" opacity="0.45923913" transform="translate(893.148582, 59.177233) scale(1, -1) translate(-893.148582, -59.177233) "></path>
            <circle id="Oval-4" stroke="#979797" fill="#DB1A1A" cx="930.5" cy="54.5" r="3.5"></circle>
            <circle id="Oval-4-Copy" stroke="#979797" fill="#D81E1E" cx="943.5" cy="54.5" r="3.5"></circle>
            <g id="Rectangle">
                <use fill="#A00B0B" fill-rule="evenodd" xlink:href="#path-1"></use>
                <rect stroke="#979797" stroke-width="1" x="929.5" y="65.5" width="14" height="6" rx="3"></rect>
            </g>
        </g>
    </g>
</svg>