<?xml version="1.0" encoding="UTF-8"?>
<svg width="222px" height="143px" viewBox="0 0 222 143" version="1.1" xmlns="http://www.w3.org/2000/svg" xmlns:xlink="http://www.w3.org/1999/xlink">
    <!-- Generator: Sketch 43.2 (39069) - http://www.bohemiancoding.com/sketch -->
    <title>Group</title>
    <desc>Created with Sketch.</desc>
    <defs>
        <filter x="-5.3%" y="-8.2%" width="111.1%" height="118.8%" filterUnits="objectBoundingBox" id="filter-1">
            <feOffset dx="0" dy="2" in="SourceAlpha" result="shadowOffsetOuter1"></feOffset>
            <feGaussianBlur stdDeviation="3.5" in="shadowOffsetOuter1" result="shadowBlurOuter1"></feGaussianBlur>
            <feColorMatrix values="0 0 0 0 0   0 0 0 0 0   0 0 0 0 0  0 0 0 0.5 0" type="matrix" in="shadowBlurOuter1" result="shadowMatrixOuter1"></feColorMatrix>
            <feMerge>
                <feMergeNode in="shadowMatrixOuter1"></feMergeNode>
                <feMergeNode in="SourceGraphic"></feMergeNode>
            </feMerge>
        </filter>
    </defs>
    <g id="Page-1" stroke="none" stroke-width="1" fill="none" fill-rule="evenodd">
        <g id="Desktop" transform="translate(-367.000000, -201.000000)" stroke="#979797">
            <g id="Group" filter="url(#filter-1)" transform="translate(373.000000, 207.000000)">
                <path d="M0.841796875,124.86556 C0.841796875,124.86556 4.32773529,126.253522 7.31445313,126.736979 C10.301171,127.220436 18.4085938,126.426432 18.4085938,126.426432 C18.4085938,126.426432 25.3181205,124.972144 31.3424479,121.462891 C37.3667753,117.953637 45.4230502,112.573667 49.8170573,110.140625 C58.046224,105.583984 61.7539063,105.516602 61.7539063,105.516602 C61.7539063,105.516602 66.300493,104.908236 70.1347656,105.832031 C72.6556708,106.439395 74.7037223,107.750211 75.7408854,108.544271 C78.3555636,110.546089 76.3208008,116.579125 76.3208008,116.579125 C76.3208008,116.579125 75.3490634,115.559455 74.8499349,115.174805 C74.3508064,114.790154 73.2488607,114.211751 73.2488607,114.211751 C73.2488607,114.211751 71.2891937,113.806315 70.3867188,114.211751 C69.4842438,114.617187 69.8380706,114.64272 69.7770182,114.733236 C69.6979615,114.850445 69.3971393,115.260034 69.2924805,115.447998 C69.1878216,115.635962 68.3115234,117.559814 68.3115234,117.559814 C68.3115234,117.559814 67.3845055,120.258815 67.5159505,121.262858 C67.6473955,122.266901 68.3115234,123.260579 68.3115234,123.260579 C68.3115234,123.260579 70.1396451,125.33105 71.152832,125.950358 C72.1660189,126.569666 74.421224,126.995117 74.421224,126.995117 C74.421224,126.995117 83.0418711,127.359929 86.5952148,127.199707 C90.1485586,127.039485 95.5983073,126.426432 95.5983073,126.426432 C95.5983073,126.426432 101.10084,125.30163 103.867025,125.082194 C106.63321,124.862758 109.342936,125.3361 109.342936,125.3361 L109.342936,125.3361" id="Path"></path>
                <path d="M101,118.762233 C101,118.762233 104.485938,120.150195 107.472656,120.633652 C107.917548,120.705666 108.476059,120.749336 109.104469,120.771508 C112.694797,120.898182 118.566797,120.323105 118.566797,120.323105 C118.566797,120.323105 125.476324,118.868817 131.500651,115.359564 C133.338095,114.289227 135.364565,113.044863 137.418497,111.763166 C142.098679,108.842631 146.921443,105.728253 149.97526,104.037298 C158.204427,99.4806573 161.912109,99.4132745 161.912109,99.4132745 C161.912109,99.4132745 166.458696,98.8049094 170.292969,99.7287042 C172.813874,100.336068 174.861925,101.646884 175.899089,102.440944 C178.513767,104.442762 176.479004,110.475798 176.479004,110.475798 C176.479004,110.475798 175.507267,109.456128 175.008138,109.071478 C174.50901,108.686827 173.407064,108.108424 173.407064,108.108424 C173.407064,108.108424 171.447397,107.702988 170.544922,108.108424 C169.642447,108.51386 169.996274,108.539392 169.935221,108.629909 C169.856165,108.747118 169.555342,109.156707 169.450684,109.344671 C169.346025,109.532635 168.469727,111.456487 168.469727,111.456487 C168.469727,111.456487 167.542709,114.155488 167.674154,115.159531 C167.805599,116.163574 168.469727,117.157252 168.469727,117.157252 C168.469727,117.157252 170.297848,119.227723 171.311035,119.847031 C172.324222,120.466339 174.579427,120.89179 174.579427,120.89179 C174.579427,120.89179 183.200074,121.256602 186.753418,121.09638 C190.306762,120.936158 195.75651,120.323105 195.75651,120.323105 C195.75651,120.323105 201.259043,119.198302 204.025228,118.978867 C206.791413,118.759431 209.501139,119.232773 209.501139,119.232773 L209.501139,119.232773" id="Path-Copy"></path>
                <path d="M86.1051525,2.06834422 C156.939137,-12.9687652 80.144215,58.9160005 80.144215,58.9160005 C80.144215,58.9160005 15.2711681,17.1054536 86.1051525,2.06834422 Z" id="Path-2"></path>
                <path d="M95.9733955,75.7577674 C101.309333,90.6054237 81.1335518,96.8358924 81.1335518,96.8358924 L71.6648018,71.8456581 L91.1784737,61.3808143 C91.1784737,61.3808143 90.637458,60.9101112 95.9733955,75.7577674 Z" id="Path-3" transform="translate(84.268299, 79.108353) rotate(-167.000000) translate(-84.268299, -79.108353) "></path>
                <path d="M72.0537109,78.4355469 C72.0537109,78.4355469 79.5410209,76.789659 82.6987305,75.2036133 C85.8564401,73.6175675 91.887207,68.4736328 91.887207,68.4736328" id="Path-4"></path>
                <path d="M72.9545898,86.8549805 C72.9545898,86.8549805 79.2370196,81.3152672 83.4077148,79.7460938 C87.5784101,78.1769203 93.8608398,78.9892578 93.8608398,78.9892578" id="Path-5"></path>
            </g>
        </g>
    </g>
</svg>